<svg xmlns="http://www.w3.org/2000/svg" xmlns:xlink="http://www.w3.org/1999/xlink" width="20" zoomAndPan="magnify" viewBox="0 0 600 599.999999" height="20" fill="#444" preserveAspectRatio="xMidYMid meet" version="1.0"><defs><clipPath id="94173fb402"><path d="M 130.390625 52.277344 L 469.390625 52.277344 L 469.390625 547.84375 L 130.390625 547.84375 Z M 130.390625 52.277344 " clip-rule="nonzero"/></clipPath></defs><g clip-path="url(#94173fb402)"><path fill="#fff" d="M 300.203125 51.65625 C 206.570312 51.65625 130.390625 127.8125 130.390625 221.417969 C 130.390625 315.019531 206.570312 391.179688 300.203125 391.179688 L 356.058594 391.179688 L 356.058594 327.5 L 300.203125 327.5 C 241.671875 327.5 194.054688 279.898438 194.054688 221.382812 C 194.054688 162.871094 241.671875 115.269531 300.203125 115.269531 C 358.738281 115.269531 406.582031 162.871094 406.582031 221.382812 L 406.582031 377.75 C 406.582031 435.871094 359.226562 483.214844 301.25 483.832031 C 273.339844 483.539062 247.164062 472.53125 227.390625 452.796875 L 182.355469 497.816406 C 213.890625 529.34375 255.625 546.921875 300.105469 547.511719 C 300.5 547.511719 300.859375 547.511719 301.25 547.511719 C 301.644531 547.511719 302.035156 547.511719 302.425781 547.511719 C 394.753906 546.234375 469.496094 470.992188 469.921875 378.5 L 469.984375 217.203125 C 467.761719 125.496094 392.464844 51.589844 300.203125 51.589844 Z M 300.203125 51.65625 " fill-opacity="1" fill-rule="nonzero"/></g></svg>